<svg width="181" height="38" viewBox="0 0 181 38" fill="none" xmlns="http://www.w3.org/2000/svg">
<path d="M0 5H181L166.256 38H0V5Z" fill="white" fill-opacity="0.7"/>
<path d="M0 0H178L163.5 33H0V0Z" fill="#CB202D"/>
<path d="M23.692 23V10.4H29.2C30.568 10.4 31.768 10.664 32.8 11.192C33.832 11.72 34.636 12.452 35.212 13.388C35.788 14.324 36.076 15.428 36.076 16.7C36.076 17.96 35.788 19.064 35.212 20.012C34.636 20.948 33.832 21.68 32.8 22.208C31.768 22.736 30.568 23 29.2 23H23.692ZM26.032 21.02H29.092C30.04 21.02 30.856 20.84 31.54 20.48C32.236 20.12 32.77 19.616 33.142 18.968C33.526 18.32 33.718 17.564 33.718 16.7C33.718 15.824 33.526 15.068 33.142 14.432C32.77 13.784 32.236 13.28 31.54 12.92C30.856 12.56 30.04 12.38 29.092 12.38H26.032V21.02ZM42.8651 23.126C41.7971 23.126 40.8611 22.916 40.0571 22.496C39.2651 22.064 38.6471 21.476 38.2031 20.732C37.7711 19.988 37.5551 19.142 37.5551 18.194C37.5551 17.234 37.7651 16.388 38.1851 15.656C38.6171 14.912 39.2051 14.33 39.9491 13.91C40.7051 13.49 41.5631 13.28 42.5231 13.28C43.4591 13.28 44.2931 13.484 45.0251 13.892C45.7571 14.3 46.3331 14.876 46.7531 15.62C47.1731 16.364 47.3831 17.24 47.3831 18.248C47.3831 18.344 47.3771 18.452 47.3651 18.572C47.3651 18.692 47.3591 18.806 47.3471 18.914H39.3371V17.42H46.1591L45.2771 17.888C45.2891 17.336 45.1751 16.85 44.9351 16.43C44.6951 16.01 44.3651 15.68 43.9451 15.44C43.5371 15.2 43.0631 15.08 42.5231 15.08C41.9711 15.08 41.4851 15.2 41.0651 15.44C40.6571 15.68 40.3331 16.016 40.0931 16.448C39.8651 16.868 39.7511 17.366 39.7511 17.942V18.302C39.7511 18.878 39.8831 19.388 40.1471 19.832C40.4111 20.276 40.7831 20.618 41.2631 20.858C41.7431 21.098 42.2951 21.218 42.9191 21.218C43.4591 21.218 43.9451 21.134 44.3771 20.966C44.8091 20.798 45.1931 20.534 45.5291 20.174L46.7351 21.56C46.3031 22.064 45.7571 22.454 45.0971 22.73C44.4491 22.994 43.7051 23.126 42.8651 23.126ZM55.2027 23V21.056L55.0767 20.642V17.24C55.0767 16.58 54.8787 16.07 54.4827 15.71C54.0867 15.338 53.4867 15.152 52.6827 15.152C52.1427 15.152 51.6087 15.236 51.0807 15.404C50.5647 15.572 50.1267 15.806 49.7667 16.106L48.8847 14.468C49.4007 14.072 50.0127 13.778 50.7207 13.586C51.4407 13.382 52.1847 13.28 52.9527 13.28C54.3447 13.28 55.4187 13.616 56.1747 14.288C56.9427 14.948 57.3267 15.974 57.3267 17.366V23H55.2027ZM52.1787 23.126C51.4587 23.126 50.8287 23.006 50.2887 22.766C49.7487 22.514 49.3287 22.172 49.0287 21.74C48.7407 21.296 48.5967 20.798 48.5967 20.246C48.5967 19.706 48.7227 19.22 48.9747 18.788C49.2387 18.356 49.6647 18.014 50.2527 17.762C50.8407 17.51 51.6207 17.384 52.5927 17.384H55.3827V18.878H52.7547C51.9867 18.878 51.4707 19.004 51.2067 19.256C50.9427 19.496 50.8107 19.796 50.8107 20.156C50.8107 20.564 50.9727 20.888 51.2967 21.128C51.6207 21.368 52.0707 21.488 52.6467 21.488C53.1987 21.488 53.6907 21.362 54.1227 21.11C54.5667 20.858 54.8847 20.486 55.0767 19.994L55.4547 21.344C55.2387 21.908 54.8487 22.346 54.2847 22.658C53.7327 22.97 53.0307 23.126 52.1787 23.126ZM60.2143 23V9.644H62.4643V23H60.2143ZM68.3874 23.126C67.5834 23.126 66.8094 23.024 66.0654 22.82C65.3334 22.604 64.7514 22.346 64.3194 22.046L65.1834 20.336C65.6154 20.612 66.1314 20.84 66.7314 21.02C67.3314 21.2 67.9314 21.29 68.5314 21.29C69.2394 21.29 69.7494 21.194 70.0614 21.002C70.3854 20.81 70.5474 20.552 70.5474 20.228C70.5474 19.964 70.4394 19.766 70.2234 19.634C70.0074 19.49 69.7254 19.382 69.3774 19.31C69.0294 19.238 68.6394 19.172 68.2074 19.112C67.7874 19.052 67.3614 18.974 66.9294 18.878C66.5094 18.77 66.1254 18.62 65.7774 18.428C65.4294 18.224 65.1474 17.954 64.9314 17.618C64.7154 17.282 64.6074 16.838 64.6074 16.286C64.6074 15.674 64.7814 15.146 65.1294 14.702C65.4774 14.246 65.9634 13.898 66.5874 13.658C67.2234 13.406 67.9734 13.28 68.8374 13.28C69.4854 13.28 70.1394 13.352 70.7994 13.496C71.4594 13.64 72.0054 13.844 72.4374 14.108L71.5734 15.818C71.1174 15.542 70.6554 15.356 70.1874 15.26C69.7314 15.152 69.2754 15.098 68.8194 15.098C68.1354 15.098 67.6254 15.2 67.2894 15.404C66.9654 15.608 66.8034 15.866 66.8034 16.178C66.8034 16.466 66.9114 16.682 67.1274 16.826C67.3434 16.97 67.6254 17.084 67.9734 17.168C68.3214 17.252 68.7054 17.324 69.1254 17.384C69.5574 17.432 69.9834 17.51 70.4034 17.618C70.8234 17.726 71.2074 17.876 71.5554 18.068C71.9154 18.248 72.2034 18.506 72.4194 18.842C72.6354 19.178 72.7434 19.616 72.7434 20.156C72.7434 20.756 72.5634 21.278 72.2034 21.722C71.8554 22.166 71.3574 22.514 70.7094 22.766C70.0614 23.006 69.2874 23.126 68.3874 23.126ZM75.4011 16.268C74.9931 16.268 74.6451 16.13 74.3571 15.854C74.0691 15.566 73.9251 15.206 73.9251 14.774C73.9251 14.318 74.0691 13.958 74.3571 13.694C74.6451 13.418 74.9931 13.28 75.4011 13.28C75.8091 13.28 76.1571 13.418 76.4451 13.694C76.7331 13.958 76.8771 14.318 76.8771 14.774C76.8771 15.206 76.7331 15.566 76.4451 15.854C76.1571 16.13 75.8091 16.268 75.4011 16.268ZM75.4011 23.126C74.9931 23.126 74.6451 22.988 74.3571 22.712C74.0691 22.424 73.9251 22.064 73.9251 21.632C73.9251 21.176 74.0691 20.816 74.3571 20.552C74.6451 20.276 74.9931 20.138 75.4011 20.138C75.8091 20.138 76.1571 20.276 76.4451 20.552C76.7331 20.816 76.8771 21.176 76.8771 21.632C76.8771 22.064 76.7331 22.424 76.4451 22.712C76.1571 22.988 75.8091 23.126 75.4011 23.126ZM85.4722 23L90.6742 11.336L91.2862 12.38H84.1402L85.2562 11.246V14.522H83.0782V10.4H92.8702V11.966L87.9742 23H85.4722ZM98.177 23.18C97.289 23.18 96.419 23.054 95.567 22.802C94.727 22.538 94.019 22.178 93.443 21.722L94.433 19.904C94.889 20.276 95.441 20.576 96.089 20.804C96.749 21.032 97.433 21.146 98.141 21.146C98.969 21.146 99.617 20.972 100.085 20.624C100.565 20.276 100.805 19.808 100.805 19.22C100.805 18.824 100.703 18.476 100.499 18.176C100.307 17.876 99.959 17.648 99.455 17.492C98.963 17.336 98.285 17.258 97.421 17.258H94.379L95.027 10.4H102.425V12.362H95.891L97.115 11.246L96.629 16.376L95.405 15.278H97.943C99.191 15.278 100.193 15.446 100.949 15.782C101.717 16.106 102.275 16.562 102.623 17.15C102.983 17.726 103.163 18.386 103.163 19.13C103.163 19.862 102.983 20.534 102.623 21.146C102.263 21.758 101.711 22.25 100.967 22.622C100.235 22.994 99.305 23.18 98.177 23.18ZM106.101 23L114.705 10.4H116.469L107.865 23H106.101ZM107.145 17.186C106.557 17.186 106.035 17.042 105.579 16.754C105.123 16.466 104.769 16.064 104.517 15.548C104.265 15.032 104.139 14.426 104.139 13.73C104.139 13.034 104.265 12.428 104.517 11.912C104.769 11.396 105.123 10.994 105.579 10.706C106.035 10.418 106.557 10.274 107.145 10.274C107.757 10.274 108.285 10.418 108.729 10.706C109.185 10.994 109.539 11.396 109.791 11.912C110.043 12.428 110.169 13.034 110.169 13.73C110.169 14.426 110.043 15.032 109.791 15.548C109.539 16.064 109.185 16.466 108.729 16.754C108.285 17.042 107.757 17.186 107.145 17.186ZM107.163 15.926C107.643 15.926 108.015 15.74 108.279 15.368C108.555 14.984 108.693 14.438 108.693 13.73C108.693 13.022 108.555 12.482 108.279 12.11C108.015 11.726 107.643 11.534 107.163 11.534C106.683 11.534 106.299 11.726 106.011 12.11C105.735 12.494 105.597 13.034 105.597 13.73C105.597 14.426 105.735 14.966 106.011 15.35C106.299 15.734 106.683 15.926 107.163 15.926ZM115.407 23.126C114.819 23.126 114.297 22.982 113.841 22.694C113.385 22.406 113.031 22.004 112.779 21.488C112.527 20.972 112.401 20.366 112.401 19.67C112.401 18.974 112.527 18.368 112.779 17.852C113.031 17.336 113.385 16.934 113.841 16.646C114.297 16.358 114.819 16.214 115.407 16.214C116.019 16.214 116.547 16.358 116.991 16.646C117.447 16.934 117.801 17.336 118.053 17.852C118.305 18.368 118.431 18.974 118.431 19.67C118.431 20.366 118.305 20.972 118.053 21.488C117.801 22.004 117.447 22.406 116.991 22.694C116.547 22.982 116.019 23.126 115.407 23.126ZM115.407 21.866C115.887 21.866 116.265 21.674 116.541 21.29C116.817 20.906 116.955 20.366 116.955 19.67C116.955 18.974 116.817 18.434 116.541 18.05C116.265 17.666 115.887 17.474 115.407 17.474C114.939 17.474 114.561 17.666 114.273 18.05C113.997 18.422 113.859 18.962 113.859 19.67C113.859 20.378 113.997 20.924 114.273 21.308C114.561 21.68 114.939 21.866 115.407 21.866ZM131.602 23.18C130.618 23.18 129.712 23.018 128.884 22.694C128.056 22.37 127.336 21.92 126.724 21.344C126.112 20.756 125.638 20.072 125.302 19.292C124.966 18.5 124.798 17.636 124.798 16.7C124.798 15.764 124.966 14.906 125.302 14.126C125.638 13.334 126.112 12.65 126.724 12.074C127.336 11.486 128.056 11.03 128.884 10.706C129.712 10.382 130.612 10.22 131.584 10.22C132.568 10.22 133.468 10.382 134.284 10.706C135.112 11.03 135.832 11.486 136.444 12.074C137.056 12.65 137.53 13.334 137.866 14.126C138.202 14.906 138.37 15.764 138.37 16.7C138.37 17.636 138.202 18.5 137.866 19.292C137.53 20.084 137.056 20.768 136.444 21.344C135.832 21.92 135.112 22.37 134.284 22.694C133.468 23.018 132.574 23.18 131.602 23.18ZM131.584 21.128C132.22 21.128 132.808 21.02 133.348 20.804C133.888 20.588 134.356 20.282 134.752 19.886C135.148 19.478 135.454 19.01 135.67 18.482C135.898 17.942 136.012 17.348 136.012 16.7C136.012 16.052 135.898 15.464 135.67 14.936C135.454 14.396 135.148 13.928 134.752 13.532C134.356 13.124 133.888 12.812 133.348 12.596C132.808 12.38 132.22 12.272 131.584 12.272C130.948 12.272 130.36 12.38 129.82 12.596C129.292 12.812 128.824 13.124 128.416 13.532C128.02 13.928 127.708 14.396 127.48 14.936C127.264 15.464 127.156 16.052 127.156 16.7C127.156 17.336 127.264 17.924 127.48 18.464C127.708 19.004 128.02 19.478 128.416 19.886C128.812 20.282 129.28 20.588 129.82 20.804C130.36 21.02 130.948 21.128 131.584 21.128ZM140.94 23V12.848C140.94 11.84 141.234 11.036 141.822 10.436C142.422 9.824 143.274 9.518 144.378 9.518C144.774 9.518 145.146 9.56 145.494 9.644C145.854 9.728 146.154 9.86 146.394 10.04L145.782 11.732C145.614 11.6 145.422 11.504 145.206 11.444C144.99 11.372 144.768 11.336 144.54 11.336C144.072 11.336 143.718 11.468 143.478 11.732C143.238 11.984 143.118 12.368 143.118 12.884V13.964L143.19 14.972V23H140.94ZM139.356 15.26V13.46H145.764V15.26H139.356ZM147.637 23V12.848C147.637 11.84 147.931 11.036 148.519 10.436C149.119 9.824 149.971 9.518 151.075 9.518C151.471 9.518 151.843 9.56 152.191 9.644C152.551 9.728 152.851 9.86 153.091 10.04L152.479 11.732C152.311 11.6 152.119 11.504 151.903 11.444C151.687 11.372 151.465 11.336 151.237 11.336C150.769 11.336 150.415 11.468 150.175 11.732C149.935 11.984 149.815 12.368 149.815 12.884V13.964L149.887 14.972V23H147.637ZM146.053 15.26V13.46H152.461V15.26H146.053Z" fill="white"/>
</svg>
