<svg width="40" height="40" viewBox="0 0 40 40" fill="none" xmlns="http://www.w3.org/2000/svg">
<rect width="40" height="40" rx="7" fill="white"/>
<path d="M25 30C24.1667 30 23.4583 29.7083 22.875 29.125C22.2917 28.5417 22 27.8333 22 27C22 26.9 22.025 26.6667 22.075 26.3L15.05 22.2C14.7833 22.45 14.475 22.646 14.125 22.788C13.775 22.93 13.4 23.0007 13 23C12.1667 23 11.4583 22.7083 10.875 22.125C10.2917 21.5417 10 20.8333 10 20C10 19.1667 10.2917 18.4583 10.875 17.875C11.4583 17.2917 12.1667 17 13 17C13.4 17 13.775 17.071 14.125 17.213C14.475 17.355 14.7833 17.5507 15.05 17.8L22.075 13.7C22.0417 13.5833 22.021 13.471 22.013 13.363C22.005 13.255 22.0007 13.134 22 13C22 12.1667 22.2917 11.4583 22.875 10.875C23.4583 10.2917 24.1667 10 25 10C25.8333 10 26.5417 10.2917 27.125 10.875C27.7083 11.4583 28 12.1667 28 13C28 13.8333 27.7083 14.5417 27.125 15.125C26.5417 15.7083 25.8333 16 25 16C24.6 16 24.225 15.929 23.875 15.787C23.525 15.645 23.2167 15.4493 22.95 15.2L15.925 19.3C15.9583 19.4167 15.9793 19.5293 15.988 19.638C15.9967 19.7467 16.0007 19.8673 16 20C15.9993 20.1327 15.9953 20.2537 15.988 20.363C15.9807 20.4723 15.9597 20.5847 15.925 20.7L22.95 24.8C23.2167 24.55 23.525 24.3543 23.875 24.213C24.225 24.0717 24.6 24.0007 25 24C25.8333 24 26.5417 24.2917 27.125 24.875C27.7083 25.4583 28 26.1667 28 27C28 27.8333 27.7083 28.5417 27.125 29.125C26.5417 29.7083 25.8333 30 25 30Z" fill="#ED1D2B"/>
</svg>
